HIERARCHY
ROOT SpineBase
{
  OFFSET 0.000000 0.000000 0.000000
  CHANNELS 6 Xposition Yposition Zposition Zrotation Xrotation Yrotation
  JOINT SpineMid
  {
    OFFSET 0.000000 31.728888 0.000000
    CHANNELS 3 Zrotation Xrotation Yrotation
    JOINT SpineShoulder
    {
      OFFSET 0.161218 23.529722 -0.843797
      CHANNELS 3 Zrotation Xrotation Yrotation
      JOINT Neck
      {
        OFFSET 0.143178 7.768134 -0.624707
        CHANNELS 3 Zrotation Xrotation Yrotation
        JOINT Head
        {
          OFFSET 3.156693 12.855814 3.149911
          CHANNELS 3 Zrotation Xrotation Yrotation
          End Site
          {
            OFFSET 0 0 0
          }
        }
      }
      JOINT ShoulderLeft
      {
        OFFSET -8.830214 -3.105450 -14.613964
        CHANNELS 3 Zrotation Xrotation Yrotation
        JOINT ElbowLeft
        {
          OFFSET -6.097478 -24.171886 -7.417248
          CHANNELS 3 Zrotation Xrotation Yrotation
          JOINT WristLeft
          {
            OFFSET 1.947911 -22.231518 -4.481278
            CHANNELS 3 Zrotation Xrotation Yrotation
            JOINT HandLeft
            {
              OFFSET 1.166721 -7.248268 1.431429
              CHANNELS 3 Zrotation Xrotation Yrotation
              JOINT HandTipLeft
              {
                OFFSET 0.833188 -6.816199 -0.898107
                CHANNELS 3 Zrotation Xrotation Yrotation
                End Site
                {
                  OFFSET 0 0 0
                }
              }
              JOINT ThumbLeft
              {
                OFFSET 3.699564 1.766069 5.623267
                CHANNELS 3 Zrotation Xrotation Yrotation
                End Site
                {
                  OFFSET 0 0 0
                }
              }
            }
          }
        }
      }
      JOINT ShoulderRight
      {
        OFFSET 12.416047 -6.711469 9.925412
        CHANNELS 3 Zrotation Xrotation Yrotation
        JOINT ElbowRight
        {
          OFFSET 3.364109 -24.662563 4.423166
          CHANNELS 3 Zrotation Xrotation Yrotation
          JOINT WristRight
          {
            OFFSET 0.585838 -21.660797 -3.406304
            CHANNELS 3 Zrotation Xrotation Yrotation
            JOINT HandRight
            {
              OFFSET -0.986644 -6.205680 -1.150737
              CHANNELS 3 Zrotation Xrotation Yrotation
              JOINT HandTipRight
              {
                OFFSET 0.912308 -5.954394 -0.277542
                CHANNELS 3 Zrotation Xrotation Yrotation
                End Site
                {
                  OFFSET 0 0 0
                }
              }
              JOINT ThumbRight
              {
                OFFSET -2.597850 -0.906915 -2.493770
                CHANNELS 3 Zrotation Xrotation Yrotation
                End Site
                {
                  OFFSET 0 0 0
                }
              }
            }
          }
        }
      }
    }
  }
  JOINT HipLeft
  {
    OFFSET -3.668145 1.105564 -9.736802
    CHANNELS 3 Zrotation Xrotation Yrotation
    JOINT KneeLeft
    {
      OFFSET -11.431240 -28.448464 1.301311
      CHANNELS 3 Zrotation Xrotation Yrotation
      JOINT AnkleLeft
      {
        OFFSET -10.454458 -29.959255 5.086069
        CHANNELS 3 Zrotation Xrotation Yrotation
        JOINT FootLeft
        {
          OFFSET 8.148755 -4.516536 -9.765324
          CHANNELS 3 Zrotation Xrotation Yrotation
          End Site
          {
            OFFSET 0 0 0
          }
        }
      }
    }
  }
  JOINT HipRight
  {
    OFFSET 5.219707 0.074499 2.439086
    CHANNELS 3 Zrotation Xrotation Yrotation
    JOINT KneeRight
    {
      OFFSET -5.166393 -27.935179 4.852236
      CHANNELS 3 Zrotation Xrotation Yrotation
      JOINT AnkleRight
      {
        OFFSET -6.838214 -30.176364 4.714018
        CHANNELS 3 Zrotation Xrotation Yrotation
        JOINT FootRight
        {
          OFFSET 7.951697 -4.536942 -9.822631
          CHANNELS 3 Zrotation Xrotation Yrotation
          End Site
          {
            OFFSET 0 0 0
          }
        }
      }
    }
  }
}
MOTION
Frames: 15
Frame Time: 0.033333
-68.360768 66.294350 358.225210 -7.090427 -2.558586 -51.141049 -0.029155 0.134634 50.753039 0.007294 0.072704 -0.279105 -6.960125 -2.914065 4.959093 0.000000 0.000000 0.000000 -4.341130 2.531306 4.201483 8.874438 -2.038783 -2.960174 15.423477 -2.760551 1.696966 -0.987903 -10.629369 -4.213337 0.000000 0.000000 0.000000 0.000000 0.000000 0.000000 3.854230 -5.839951 -1.406953 -4.969055 23.178728 5.126548 8.391793 8.928013 -4.515125 -19.442088 -3.037668 3.637424 0.000000 0.000000 0.000000 0.000000 0.000000 0.000000 -5.619440 -0.284620 50.192384 6.926955 -4.384385 1.376199 2.756564 2.243206 1.283129 0.000000 0.000000 0.000000 -0.836515 31.012170 51.598951 -5.528339 -19.466324 3.642318 -12.321523 2.207375 0.383816 0.000000 0.000000 0.000000
-66.707028 65.837835 358.302239 -9.657283 -2.866317 -49.597857 0.045979 -0.027129 49.025061 0.229934 0.051463 -0.378638 -8.585342 -3.549930 6.245920 0.000000 0.000000 0.000000 -4.885442 1.908094 5.560743 10.056674 -1.595687 -3.842323 16.404264 -3.591602 1.049015 -1.171596 -5.675046 -3.802142 0.000000 0.000000 0.000000 0.000000 0.000000 0.000000 4.276052 -3.775869 -1.414337 -5.221229 20.815079 5.822082 5.708907 9.162316 -3.845922 -18.156838 -4.626916 2.414232 0.000000 0.000000 0.000000 0.000000 0.000000 0.000000 -4.956219 1.851779 48.572328 6.409705 -4.722388 1.308033 3.244032 2.003230 2.785872 0.000000 0.000000 0.000000 1.071854 32.876525 49.677903 -4.669425 -19.122767 3.833034 -13.273816 1.586930 1.732402 0.000000 0.000000 0.000000
-65.488581 65.369694 358.410092 -12.188962 -3.188477 -47.680817 0.132136 -0.174503 46.903122 0.431311 0.007586 -0.481031 -9.528332 -4.682567 7.389286 0.000000 0.000000 0.000000 -5.751310 1.157587 7.010148 11.858403 -1.565043 -4.972555 16.147021 -3.755090 0.215276 -1.612153 -0.326523 -2.973033 0.000000 0.000000 0.000000 0.000000 0.000000 0.000000 4.952125 -1.330959 -1.242215 -6.133863 16.014969 6.160625 7.008699 11.105508 -3.591297 -19.299690 -7.297599 0.740481 0.000000 0.000000 0.000000 0.000000 0.000000 0.000000 -3.867836 4.373489 46.559632 5.613339 -5.076499 1.258990 3.349490 1.902287 4.947469 0.000000 0.000000 0.000000 3.838863 34.438139 47.106387 -5.088240 -18.739032 3.466759 -13.305872 1.429345 3.845049 0.000000 0.000000 0.000000
-64.867631 64.847375 358.550565 -14.589417 -3.598870 -45.637227 0.144989 -0.385268 44.631467 0.554860 -0.042303 -0.588660 -12.092190 -5.013475 8.841756 0.000000 0.000000 0.000000 -5.756079 0.316939 8.197259 12.311620 -1.738493 -5.913077 15.965000 -3.526469 -0.894277 -3.628814 2.577237 -1.630770 0.000000 0.000000 0.000000 0.000000 0.000000 0.000000 5.337086 1.186039 -1.049693 -5.427454 10.157932 5.782907 8.121942 15.571360 -3.593256 -21.059309 -10.098377 -0.880773 0.000000 0.000000 0.000000 0.000000 0.000000 0.000000 -2.256618 7.244925 44.371469 4.310460 -5.266826 1.138455 3.272797 1.608602 7.125585 0.000000 0.000000 0.000000 7.384842 35.898936 44.106353 -6.801609 -18.246989 2.584220 -12.605944 1.376426 6.010889 0.000000 0.000000 0.000000
-64.185006 64.232686 358.679857 -16.791029 -4.073973 -43.175429 0.165084 -0.506124 41.930819 0.643867 -0.078250 -0.686590 -14.633831 -4.481560 10.230549 0.000000 0.000000 0.000000 -5.819962 -0.367536 9.273119 12.207473 -2.342663 -6.760302 14.988006 -2.173027 -2.217701 -6.167940 3.255471 0.144742 0.000000 0.000000 0.000000 0.000000 0.000000 0.000000 4.338212 4.888331 -0.610212 -1.760007 2.645972 4.693223 2.914715 19.768792 -1.837080 -18.960592 -11.821533 -2.333473 0.000000 0.000000 0.000000 0.000000 0.000000 0.000000 -0.965378 9.551747 41.696130 3.853817 -5.345956 1.091343 2.963754 1.170235 9.131851 0.000000 0.000000 0.000000 11.240715 36.858204 40.440399 -8.069538 -17.636921 1.898622 -12.181958 1.290841 7.977910 0.000000 0.000000 0.000000
-63.873831 63.666854 358.776418 -18.353323 -4.503661 -40.974659 0.112472 -0.581049 39.539300 0.697970 -0.081121 -0.756007 -18.771496 -3.679200 11.862111 0.000000 0.000000 0.000000 -5.479884 -0.848569 9.922600 11.893063 -3.357322 -7.454400 13.810688 0.863978 -2.957285 -8.728364 -3.027208 0.448288 0.000000 0.000000 0.000000 0.000000 0.000000 0.000000 3.670908 6.960481 -0.312015 1.835778 -2.785370 3.980404 -4.098543 23.434431 0.998856 -14.226230 -14.440942 -3.594268 0.000000 0.000000 0.000000 0.000000 0.000000 0.000000 0.187222 11.220805 39.290431 3.709365 -5.225840 1.062594 2.428384 0.702447 10.711724 0.000000 0.000000 0.000000 14.844587 37.194734 37.074731 -9.268779 -16.724837 1.240249 -11.897877 1.090916 9.538837 0.000000 0.000000 0.000000
-63.855888 63.105575 358.840208 -19.414375 -4.868668 -38.815642 -0.130299 -0.693495 37.243410 0.651474 -0.058306 -0.811406 -21.538932 -2.521255 13.147398 0.000000 0.000000 0.000000 -4.581149 -1.058883 10.225518 12.064471 -4.375915 -8.002890 9.115889 2.180842 -3.618772 -6.363723 -10.161603 0.177237 0.000000 0.000000 0.000000 0.000000 0.000000 0.000000 2.445110 7.569706 -0.337575 6.843885 -5.746657 3.827708 -16.918609 30.025224 6.743362 -7.964038 -17.963320 -4.628089 0.000000 0.000000 0.000000 0.000000 0.000000 0.000000 1.088720 12.280839 36.957622 4.011285 -4.928369 1.066424 1.642626 0.262474 12.214519 0.000000 0.000000 0.000000 18.510050 37.098888 33.772159 -10.464669 -15.724792 0.663276 -11.938331 1.061785 11.010048 0.000000 0.000000 0.000000
-63.638207 62.470229 358.862514 -20.376523 -5.159337 -36.611615 -0.095001 -0.482643 34.930446 0.631291 -0.020894 -0.840874 -23.479139 -1.720662 14.030322 0.000000 0.000000 0.000000 -4.034190 -1.275615 10.395292 12.007442 -4.558841 -8.230166 2.148749 -0.541373 -5.188803 -4.262443 -14.582137 0.966686 0.000000 0.000000 0.000000 0.000000 0.000000 0.000000 1.431712 7.058632 -0.615455 10.995081 -6.857759 3.865918 -33.836689 27.512879 14.377516 5.658822 -15.320355 -3.138434 0.000000 0.000000 0.000000 0.000000 0.000000 0.000000 2.195743 13.105941 34.575173 3.958588 -4.569711 0.966891 1.252896 -0.125329 13.403594 0.000000 0.000000 0.000000 21.640839 36.491466 30.640817 -11.355898 -14.816999 0.195909 -11.692569 1.023555 12.164164 0.000000 0.000000 0.000000
-63.521982 61.868718 358.800294 -20.760156 -5.327267 -34.659571 -0.119992 -0.277460 32.945578 0.451711 0.033877 -0.850100 -25.509026 -0.776717 14.798977 0.000000 0.000000 0.000000 -3.593659 -1.149773 10.390793 11.707682 -4.851761 -8.168326 4.769306 -4.727202 -5.855195 -5.979722 -11.882613 1.646013 0.000000 0.000000 0.000000 0.000000 0.000000 0.000000 0.257848 5.508407 -1.207791 15.323980 -5.344320 3.968065 -42.485616 16.889432 15.445332 15.453050 -5.317007 -2.022011 0.000000 0.000000 0.000000 0.000000 0.000000 0.000000 3.081365 13.455332 32.501741 3.801363 -4.179893 0.850285 0.981198 -0.411558 14.175898 0.000000 0.000000 0.000000 24.169311 35.496608 28.087015 -12.473986 -13.959865 -0.294891 -11.217985 1.115062 12.925596 0.000000 0.000000 0.000000
-63.651479 61.227899 358.598543 -20.730588 -5.325569 -31.757655 -0.118514 -0.169157 30.059860 0.286796 0.077398 -0.844642 -27.721032 0.511450 15.547475 0.000000 0.000000 0.000000 -3.185785 -0.828782 10.222504 12.268812 -5.018469 -8.067316 7.218096 -7.441773 -5.494315 -4.589205 -6.882134 1.696835 0.000000 0.000000 0.000000 0.000000 0.000000 0.000000 -0.169824 2.782276 -2.117502 18.940728 -1.646749 3.639328 -39.662767 7.260677 11.604453 16.040615 4.037459 -2.197910 0.000000 0.000000 0.000000 0.000000 0.000000 0.000000 4.123888 13.581062 29.452575 3.458121 -4.089806 0.825140 0.791481 -0.492958 14.523509 0.000000 0.000000 0.000000 27.710191 33.331308 24.717219 -14.273348 -12.453458 -1.000225 -10.518098 1.287809 13.326969 0.000000 0.000000 0.000000
-63.502885 60.850687 358.556590 -20.898943 -5.391912 -31.153464 -0.273489 -0.126031 29.450817 0.333189 0.153675 -0.843568 -28.833308 1.601885 16.045546 0.000000 0.000000 0.000000 -3.184613 -0.497237 10.248036 14.537275 -5.538498 -8.359660 4.660008 -7.943447 -5.074490 2.860461 -0.692687 0.882748 0.000000 0.000000 0.000000 0.000000 0.000000 0.000000 -1.085891 3.134778 -2.102752 21.728150 -2.077164 3.528496 -36.243009 1.947793 9.739092 10.388245 10.119006 -1.801561 0.000000 0.000000 0.000000 0.000000 0.000000 0.000000 4.170007 13.812075 28.780949 3.628081 -4.155272 0.884200 0.797269 -0.820003 14.106687 0.000000 0.000000 0.000000 28.836042 32.956446 23.902640 -15.149511 -12.057328 -1.292338 -10.016697 1.158638 12.917614 0.000000 0.000000 0.000000
-63.318569 60.893264 358.563353 -21.167326 -5.406372 -32.618307 -0.331793 -0.041687 30.910189 0.314615 0.203391 -0.848737 -28.467794 1.382015 15.933552 0.000000 0.000000 0.000000 -3.516534 -0.089839 10.395542 17.888503 -6.119142 -8.763997 2.665168 -5.841223 -3.730314 7.306716 3.250966 -0.150051 0.000000 0.000000 0.000000 0.000000 0.000000 0.000000 -1.570210 3.941471 -1.881215 22.332143 -2.298426 3.742430 -31.132315 0.074741 7.964831 3.228594 11.971826 -0.606037 0.000000 0.000000 0.000000 0.000000 0.000000 0.000000 3.935422 14.026036 30.260490 3.788914 -4.153247 0.907584 0.883478 -1.140002 13.190758 0.000000 0.000000 0.000000 28.399855 34.215697 25.206854 -15.644587 -12.421367 -1.403646 -9.678487 0.856643 12.017730 0.000000 0.000000 0.000000
-63.182133 61.176350 358.588267 -21.504408 -5.335636 -35.261455 -0.309927 0.054006 33.551676 0.206475 0.223533 -0.861541 -26.114465 0.275887 15.145280 0.000000 0.000000 0.000000 -4.244510 0.320009 10.698719 22.086662 -6.792157 -9.239007 0.274143 -2.831802 -2.150262 10.853268 7.294686 -0.945987 0.000000 0.000000 0.000000 0.000000 0.000000 0.000000 -1.553752 4.325469 -1.748603 20.744076 -2.155903 4.155084 -24.093445 2.379855 6.263069 -0.169370 8.606795 -0.500799 0.000000 0.000000 0.000000 0.000000 0.000000 0.000000 3.702943 14.104212 32.982943 3.900654 -3.911346 0.840810 0.911902 -1.417685 12.396791 0.000000 0.000000 0.000000 27.047909 36.368435 27.813264 -15.994405 -13.235515 -1.428601 -9.535379 0.602119 11.228655 0.000000 0.000000 0.000000
-63.098034 61.626193 358.625304 -22.105896 -5.249895 -38.713252 -0.249246 0.168544 36.980729 0.029874 0.254582 -0.883972 -23.425449 -1.227200 14.347746 0.000000 0.000000 0.000000 -4.096359 0.625582 10.822702 24.634204 -7.411256 -9.426847 -1.629775 2.414000 -0.592831 14.824598 2.786264 -1.660583 0.000000 0.000000 0.000000 0.000000 0.000000 0.000000 -1.793031 4.920948 -1.580194 19.852426 -1.462321 4.654364 -19.798925 2.524055 4.787333 -1.999027 8.242806 0.120036 0.000000 0.000000 0.000000 0.000000 0.000000 0.000000 3.824758 14.331754 36.509951 3.612127 -3.336046 0.599386 1.100847 -1.888698 11.508391 0.000000 0.000000 0.000000 24.882569 39.174043 31.435616 -16.037073 -14.394977 -1.327051 -9.607137 0.252334 10.261683 0.000000 0.000000 0.000000
-63.070383 62.171663 358.657837 -22.844687 -5.123286 -42.541601 -0.137785 0.325729 40.780717 -0.168961 0.295066 -0.908571 -19.975324 -2.915928 13.413086 0.000000 0.000000 0.000000 -3.721542 0.769964 10.905415 26.028931 -7.702766 -9.463591 -3.045219 6.639394 0.452404 15.230124 -1.611533 -1.239904 0.000000 0.000000 0.000000 0.000000 0.000000 0.000000 -1.696923 5.055183 -1.539741 18.344211 -0.289596 5.192408 -15.448144 5.121548 3.455672 -3.112495 7.649851 1.330536 0.000000 0.000000 0.000000 0.000000 0.000000 0.000000 4.092979 14.646678 40.414141 3.298620 -2.629656 0.315895 1.243051 -2.361673 10.658507 0.000000 0.000000 0.000000 22.143957 42.144704 35.781895 -15.977980 -15.568187 -1.187714 -9.841413 -0.161892 9.325906 0.000000 0.000000 0.000000
